<svg width="25" height="18" fill="none" xmlns="http://www.w3.org/2000/svg"><path fill-rule="evenodd" clip-rule="evenodd" d="M24.429 2.132a10.87 10.87 0 0 1-2.879.716c1.035-.563 1.83-1.453 2.203-2.514-.968.521-2.04.899-3.183 1.1C19.657.554 18.355 0 16.912 0c-2.768 0-5.011 2.035-5.011 4.545 0 .357.044.703.13 1.036C7.864 5.392 4.172 3.583 1.7.834a4.196 4.196 0 0 0-.678 2.284c0 1.576.886 2.967 2.23 3.781a5.408 5.408 0 0 1-2.27-.568v.056c0 2.203 1.726 4.038 4.02 4.457a5.485 5.485 0 0 1-2.262.077c.636 1.805 2.487 3.119 4.68 3.155-1.716 1.219-3.876 1.947-6.224 1.947C.792 16.023.392 16 0 15.96 2.218 17.248 4.852 18 7.683 18c9.22 0 14.26-6.925 14.26-12.93 0-.196-.006-.391-.015-.585a9.694 9.694 0 0 0 2.5-2.352v-.001z" fill="#1DA1F2"/></svg>