<svg width="27" height="16" fill="none" xmlns="http://www.w3.org/2000/svg"><path d="M25.069 1.861c-.71-1.088-1.48-1.288-3.05-1.364-1.568-.092-5.51-.13-8.925-.13-3.421 0-7.365.038-8.931.129C2.597.573 1.825.772 1.108 1.86.376 2.948 0 4.82 0 8.114v.012c0 3.28.376 5.166 1.108 6.241.717 1.088 1.487 1.286 3.053 1.377 1.568.08 5.512.126 8.933.126 3.415 0 7.357-.047 8.926-.124 1.57-.092 2.34-.29 3.05-1.377.739-1.076 1.112-2.961 1.112-6.242v-.011c0-3.297-.373-5.168-1.113-6.255zM9.819 12.346V3.891L18 8.119l-8.182 4.227z" fill="#EA0C00"/></svg>