<svg width="15" height="14" viewBox="0 0 15 14" fill="none" xmlns="http://www.w3.org/2000/svg">
<path d="M0.75 0H14.25C14.4489 0 14.6397 0.0790176 14.7803 0.21967C14.921 0.360322 15 0.551088 15 0.75V12.75C15 12.9489 14.921 13.1397 14.7803 13.2803C14.6397 13.421 14.4489 13.5 14.25 13.5H0.75C0.551088 13.5 0.360322 13.421 0.21967 13.2803C0.0790176 13.1397 0 12.9489 0 12.75V0.75C0 0.551088 0.0790176 0.360322 0.21967 0.21967C0.360322 0.0790176 0.551088 0 0.75 0ZM13.5 3.1785L7.554 8.5035L1.5 3.162V12H13.5V3.1785ZM1.88325 1.5L7.54575 6.4965L13.1265 1.5H1.88325Z" fill="black"/>
</svg>
