<svg width="15" height="20" viewBox="0 0 15 20" fill="none" xmlns="http://www.w3.org/2000/svg">
<path d="M7.27283 14.9863L11.1302 11.1299C11.8929 10.367 12.4123 9.39508 12.6227 8.33702C12.8331 7.27895 12.725 6.18225 12.3121 5.18561C11.8993 4.18896 11.2001 3.33712 10.3032 2.7378C9.40617 2.13848 8.35161 1.81859 7.27283 1.81859C6.19405 1.81859 5.13949 2.13848 4.2425 2.7378C3.34551 3.33712 2.64638 4.18896 2.23351 5.18561C1.82063 6.18225 1.71256 7.27895 1.92295 8.33702C2.13334 9.39508 2.65275 10.367 3.4155 11.1299L7.27283 14.9863ZM12.4156 12.4154L7.27283 17.5581L2.13003 12.4154C1.11295 11.3982 0.420314 10.1023 0.139721 8.69154C-0.140872 7.28076 0.00317605 5.81846 0.55365 4.48955C1.10412 3.16064 2.0363 2.0248 3.2323 1.22567C4.4283 0.426534 5.83441 0 7.27283 0C8.71124 0 10.1174 0.426534 11.3134 1.22567C12.5094 2.0248 13.4415 3.16064 13.992 4.48955C14.5425 5.81846 14.6865 7.28076 14.4059 8.69154C14.1253 10.1023 13.4327 11.3982 12.4156 12.4154ZM0.909106 18.1818H13.6365V20H0.909106V18.1818Z" fill="#11132B"/>
</svg>
