<svg width="22" height="23" viewBox="0 0 22 23" fill="none" xmlns="http://www.w3.org/2000/svg">
<path d="M21.2533 20.9845L21.253 20.9842L15.7505 15.1986C17.1301 13.6376 17.9707 11.5789 17.9707 9.3261C17.9707 4.46389 14.0578 0.5 9.23534 0.5C4.41285 0.5 0.5 4.46389 0.5 9.3261C0.5 14.1883 4.41285 18.1522 9.23534 18.1522C11.1833 18.1522 12.9837 17.5037 14.4367 16.4122L19.9619 22.2218C19.9621 22.222 19.9624 22.2223 19.9626 22.2225C20.138 22.4076 20.3739 22.5 20.608 22.5C20.8323 22.5 21.0558 22.4151 21.2277 22.2484L21.2284 22.2478C21.581 21.9047 21.5913 21.3405 21.2533 20.9845ZM9.23534 16.3592C5.40799 16.3592 2.28432 13.2091 2.28432 9.3261C2.28432 5.44313 5.40799 2.29296 9.23534 2.29296C13.0627 2.29296 16.1864 5.44313 16.1864 9.3261C16.1864 13.209 13.0623 16.3592 9.23534 16.3592Z" fill="black" stroke="black"/>
</svg>
