<svg width="25" height="18" viewBox="0 0 25 18" fill="none" xmlns="http://www.w3.org/2000/svg">
<path fill-rule="evenodd" clip-rule="evenodd" d="M24.4286 2.13171C23.5304 2.493 22.5632 2.73729 21.55 2.84786C22.5847 2.28471 23.3795 1.395 23.7531 0.334286C22.7845 0.855 21.7124 1.233 20.5698 1.43486C19.6573 0.552857 18.3552 0 16.9123 0C14.1444 0 11.901 2.03529 11.901 4.545C11.901 4.90243 11.9455 5.24829 12.0303 5.58129C7.86549 5.39229 4.17347 3.58329 1.70158 0.834429C1.27044 1.503 1.02325 2.28471 1.02325 3.11786C1.02325 4.69414 1.90853 6.08529 3.25226 6.89914C2.43021 6.87471 1.65846 6.67029 0.983006 6.33086V6.38743C0.983006 8.58986 2.70902 10.4246 5.0027 10.8437C4.58161 10.9479 4.14041 11.0031 3.68196 11.0031C3.36004 11.0031 3.04531 10.9749 2.74063 10.9209C3.37729 12.726 5.22833 14.04 7.42141 14.076C5.70546 15.2949 3.54543 16.0226 1.19714 16.0226C0.791866 16.0226 0.39234 16.0007 0 15.9596C2.21751 17.2479 4.8518 18 7.68297 18C16.9023 18 21.9423 11.0751 21.9423 5.07086C21.9423 4.87414 21.9366 4.67871 21.9279 4.48457C22.9081 3.843 23.7574 3.04457 24.4286 2.133V2.13171Z" fill="#1DA1F2"/>
</svg>
