<svg width="27" height="16" viewBox="0 0 27 16" fill="none" xmlns="http://www.w3.org/2000/svg">
<path d="M25.069 1.86128C24.3589 0.773307 23.5881 0.573188 22.0189 0.497086C20.4512 0.405483 16.5092 0.367432 13.0942 0.367432C9.67252 0.367432 5.7289 0.405483 4.1629 0.495677C2.5969 0.573188 1.82454 0.771898 1.10782 1.86128C0.376363 2.94784 0 4.81938 0 8.1143C0 8.11712 0 8.11853 0 8.11853C0 8.12135 0 8.12276 0 8.12276V8.12558C0 11.4064 0.376363 13.292 1.10782 14.3673C1.82454 15.4553 2.59527 15.6526 4.16126 15.7442C5.7289 15.8231 9.67252 15.8696 13.0942 15.8696C16.5092 15.8696 20.4512 15.8231 22.0205 15.7456C23.5898 15.654 24.3605 15.4567 25.0707 14.3687C25.8087 13.2934 26.1818 11.4078 26.1818 8.12699C26.1818 8.12699 26.1818 8.12276 26.1818 8.11994C26.1818 8.11994 26.1818 8.11712 26.1818 8.11571C26.1818 4.81938 25.8087 2.94784 25.069 1.86128ZM9.81816 12.3464V3.89066L18 8.11853L9.81816 12.3464Z" fill="#EA0C00"/>
</svg>
